<?xml version="1.0" standalone="no"?>
<!DOCTYPE svg PUBLIC "-//W3C//DTD SVG 20010904//EN"
 "http://www.w3.org/TR/2001/REC-SVG-20010904/DTD/svg10.dtd">
<svg version="1.0" xmlns="http://www.w3.org/2000/svg"
 width="943.000000pt" height="1280.000000pt" viewBox="0 0 943.000000 1280.000000"
 preserveAspectRatio="xMidYMid meet">
<metadata>
Created by potrace 1.15, written by Peter Selinger 2001-2017
</metadata>
<g transform="translate(0.000000,1280.000000) scale(0.100000,-0.100000)"
fill="#000000" stroke="none">
<path d="M3690 12794 c-172 -33 -300 -78 -411 -144 -208 -126 -338 -273 -439
-500 -61 -137 -81 -228 -81 -381 0 -270 109 -530 307 -731 89 -91 170 -148
285 -203 156 -73 251 -97 417 -102 212 -8 367 24 544 113 306 153 522 470 569
834 14 110 -5 241 -57 398 -54 165 -123 274 -256 410 -187 190 -443 299 -723
307 -71 2 -141 2 -155 -1z"/>
<path d="M2331 10585 c-202 -57 -357 -164 -405 -281 -60 -146 -86 -309 -86
-529 0 -166 11 -296 50 -625 49 -408 59 -506 71 -724 22 -410 -26 -764 -146
-1061 -170 -423 -528 -863 -944 -1161 -42 -29 -53 -34 -47 -19 44 104 50 225
18 318 -70 196 -276 323 -472 289 -129 -23 -245 -100 -307 -203 -110 -184 -68
-428 97 -558 27 -22 55 -41 62 -43 9 -3 2 -17 -20 -42 -18 -20 -29 -42 -26
-48 8 -13 95 -4 154 17 23 8 62 15 87 15 24 0 75 7 113 16 66 15 71 14 137 -6
85 -28 236 -37 328 -21 215 38 462 154 771 362 263 178 446 386 630 718 277
500 495 1294 566 2066 20 212 16 638 -6 749 -22 114 -51 176 -88 190 -28 10
-28 11 -28 101 0 156 -41 249 -152 350 -66 60 -209 135 -267 141 -20 2 -60 -3
-90 -11z m-1765 -3953 c58 -30 129 -112 149 -173 48 -143 -23 -301 -163 -366
-70 -33 -183 -30 -252 5 -121 63 -183 187 -159 319 19 103 73 171 174 220 43
21 61 23 130 20 56 -2 92 -10 121 -25z"/>
<path d="M4693 10125 c-29 -8 -75 -26 -102 -39 -58 -30 -196 -137 -210 -165
-23 -42 -43 -205 -38 -296 10 -149 23 -191 83 -272 395 -529 946 -956 1539
-1191 167 -66 271 -99 498 -157 239 -61 432 -96 637 -117 164 -16 1112 -15
1302 2 371 32 698 115 948 240 l74 37 -44 8 c-25 5 -99 11 -165 14 l-120 6 55
31 c278 158 294 556 30 732 -87 58 -151 75 -265 70 -80 -3 -101 -8 -161 -38
-90 -44 -162 -116 -204 -205 -59 -123 -52 -284 16 -401 30 -50 111 -132 156
-155 l33 -18 -42 -1 c-96 -1 -706 95 -953 150 -683 151 -1311 417 -1702 720
-137 107 -379 351 -548 555 -275 331 -402 441 -569 489 -66 19 -178 20 -248 1z
m4351 -1246 c137 -51 219 -202 186 -341 -24 -97 -78 -164 -170 -206 -144 -67
-319 -2 -392 147 -35 70 -32 177 5 253 68 138 227 201 371 147z"/>
<path d="M3217 7189 c-147 -22 -318 -166 -433 -361 -100 -170 -151 -326 -229
-708 -248 -1207 -360 -1977 -620 -4250 -77 -674 -80 -705 -70 -796 l7 -69 55
110 c77 153 201 434 262 595 109 289 529 1484 687 1955 18 55 33 94 34 87 0
-8 -13 -93 -30 -190 -95 -566 -199 -1304 -375 -2671 -71 -551 -85 -683 -83
-775 l3 -111 64 125 c160 313 221 463 495 1217 426 1172 739 2086 1000 2918
69 220 139 441 156 490 83 245 176 586 223 825 48 237 51 276 38 421 l-12 132
-45 53 c-57 66 -173 156 -239 184 -29 13 -81 24 -125 27 -88 6 -153 -13 -243
-71 -32 -19 -57 -31 -57 -26 0 6 11 72 25 146 27 146 32 282 15 414 -10 74
-10 75 -78 143 -145 147 -283 207 -425 186z"/>
</g>
</svg>
